<svg xmlns="http://www.w3.org/2000/svg" viewBox="0 0 180 180" width="180" height="180">
<rect width="180" height="180" rx="20" fill="#fff"/>
<g transform="translate(20,50) scale(0.8)">
<path d="M27.2 97.2C21.8 88.7 19 80.9 19 74.1c0-9.5 3.2-17.1 9.3-22C34.4 47 42.4 44 51.5 44c6.4 0 12 2 17.4 7.2 3.3 3.2 7.5 9.7 12.5 19.2l2.1 4c4 7.7 6.8 12.5 8.6 15.2 2.7 4 5.2 6.6 7.6 8.1 2.8 1.8 6 2.7 9.7 2.7 5.7 0 10.5-2.5 14.1-7.3 3.3-4.3 5-9.7 5-16-.2-10.2-3.2-21-9.2-32.3-5.8-10.8-12.7-19.2-20.8-25.2-8.4-6.2-16.7-9.3-25-9.3-7.1 0-13.3 2.2-18.6 6.7-5.3 4.5-11.1 12.7-17.4 24.5C32.3 31.7 27.1 24.8 22.2 20.4 16.3 15.2 9.8 12.5 2.8 12.5h-1.2v18.1h.2c3.4 0 6.8 1.7 10.3 5 3.3 3.2 7 8.6 11 16.2l1.1 2c2 3.7 3.3 6.2 3.8 7.3 2.3 4.8 3.5 9.3 3.5 13.5 0 4.3-1.5 8-4.3 10.7zm81.3.5c-3.3 0-6.7-1.7-10.2-5-3.3-3-7-8.3-11-15.8l-1.7-3.2c-1.5-2.8-2.7-5-3.5-6.5C79 61.5 77 56.3 76 52.8c-1.5-5.2-2.2-10-2.2-14.5 0-4.2 1.5-7.8 4.3-10.5C81 25 84.5 23.5 89 23.5c3 0 6.2 1.3 9.5 4 3.5 2.8 7.2 7.2 11 13.2 5 7.8 8.7 16 11.2 24.3 2.3 7.8 3.5 14.5 3.5 20 0 4.3-1.3 8-4 10.8-2.7 2.8-6 4-10 3.8h-2z" fill="url(#metaGrad)"/>
</g>
<defs>
<linearGradient id="metaGrad" x1="0" y1="0" x2="175" y2="0">
<stop offset="0" stop-color="#0081FB"/>
<stop offset=".3" stop-color="#0081FB"/>
<stop offset=".5" stop-color="#0099FC"/>
<stop offset=".7" stop-color="#A033FF"/>
<stop offset=".9" stop-color="#FF5C87"/>
<stop offset="1" stop-color="#FF7735"/>
</linearGradient>
</defs>
</svg>
